<svg xmlns="http://www.w3.org/2000/svg" width="16" height="16" viewBox="0 0 16 16" fill="#2e3436"><path d="M10.192,11.8 C9.558,13.382 8.009,14.5 6.2,14.5 C3.825,14.5 1.9,12.575 1.9,10.2 C1.9,9.474 2.08,8.79 2.398,8.19 L1.2,2.6 L5.126,6.035 C5.218,6.011 5.312,5.991 5.406,5.973 L6.3,2.1 L8.2,6.3 L7.956,6.274 C8.905,6.699 9.671,7.457 10.106,8.4 L11.888,8.4 L13.676,3.749 C13.506,3.585 13.4,3.355 13.4,3.1 L13.4,2.1 C13.4,1.603 13.803,1.2 14.3,1.2 L14.4,1.2 C14.897,1.2 15.3,1.603 15.3,2.1 L15.3,3.1 C15.3,3.456 15.093,3.764 14.793,3.91 L12.973,8.641 C13.469,8.938 13.8,9.48 13.8,10.1 C13.8,11.039 13.039,11.8 12.1,11.8 Z M8.9,8.7 C8.9,8.148 8.452,7.7 7.9,7.7 C7.348,7.7 6.9,8.148 6.9,8.7 C6.9,9.252 7.348,9.7 7.9,9.7 C8.452,9.7 8.9,9.252 8.9,8.7 Z"/></svg>
