<svg xmlns="http://www.w3.org/2000/svg" width="16" height="16" viewBox="0 0 16 16" fill="#2e3436"><path d="M15.1,8.2 C15.1,12.121 11.921,15.3 8,15.3 C4.079,15.3 0.9,12.121 0.9,8.2 C0.9,4.279 4.079,1.1 8,1.1 C8.604,1.1 9.191,1.176 9.751,1.318 C9.602,1.306 9.452,1.3 9.3,1.3 C6.152,1.3 3.6,3.852 3.6,7 C3.6,10.148 6.152,12.7 9.3,12.7 C12.446,12.7 14.997,10.151 15,7.006 C15.066,7.394 15.1,7.793 15.1,8.2 Z M6.7,5.3 L11.6,5.3 C12.152,5.3 12.6,5.748 12.6,6.3 L12.6,9.6 C12.6,10.152 12.152,10.6 11.6,10.6 L6.7,10.6 C6.148,10.6 5.7,10.152 5.7,9.6 L5.7,6.3 C5.7,5.748 6.148,5.3 6.7,5.3 Z M6.597,5.697 Q6.194,5.401 5.897,5.803 Q5.601,6.206 6.003,6.503 L8.853,8.603 Q9.15,8.821 9.447,8.603 L12.297,6.503 Q12.699,6.206 12.403,5.803 Q12.106,5.401 11.703,5.697 L9.15,7.579 Z M10.6,1.25 L15.2,1.6 L12.6,3.2 Z"/></svg>
