<svg xmlns="http://www.w3.org/2000/svg" width="16" height="16" viewBox="0 0 16 16" fill="#2e3436"><path d="M8,1.5 C11.038,1.5 13.5,3.962 13.5,7 L13.5,14.5 L12.115,13.5 L11.262,13.5 L9.8,14.5 L8.415,13.5 L7.585,13.5 L6.2,14.5 L4.738,13.5 L3.885,13.5 L2.5,14.5 L2.5,7 C2.5,3.962 4.962,1.5 8,1.5 Z M5.706,5.492 Q5.198,5.086 4.792,5.594 Q4.386,6.102 4.894,6.508 L6.259,7.6 L4.894,8.692 Q4.386,9.098 4.792,9.606 Q5.198,10.114 5.706,9.708 L7.706,8.108 Q7.762,8.062 7.808,8.006 Q8.214,7.498 7.706,7.092 Z M8.6,8.95 Q7.95,8.95 7.95,9.6 Q7.95,10.25 8.6,10.25 L10.8,10.25 Q11.45,10.25 11.45,9.6 Q11.45,8.95 10.8,8.95 Z"/></svg>
